<?xml version="1.0" encoding="UTF-8"?>
<svg version="1.1" xmlns="http://www.w3.org/2000/svg" width="500" height="500">
<path d="M0 0 C3.62937749 1.47418424 5.34625595 3.39797434 7.6875 6.5 C12.8978097 13.2142166 18.4577098 19.58194456 24.5625 25.5 C27 28 27 28 27 30 C25.49609375 31.2265625 25.49609375 31.2265625 23.4375 32.625 C14.20222775 39.41707853 8.36022414 48.23140972 5.35546875 59.39453125 C3.53287805 72.7535202 4.67011105 85.80914668 12.1875 97.3125 C21.49575706 109.48028519 32.92978562 115.89220792 48 118 C51.75406964 118.2678079 55.49191584 118.3105509 59.25463867 118.31884766 C60.31938416 118.32889328 61.38412964 118.3389389 62.48114014 118.34928894 C65.96007809 118.37989497 69.43893991 118.39709285 72.91796875 118.4140625 C75.34606064 118.43279233 77.77414614 118.45236707 80.20222473 118.4727478 C86.56263449 118.52388316 92.92306531 118.56360809 99.28356934 118.60089111 C105.78610362 118.64104779 112.2885517 118.69208673 118.79101562 118.7421875 C131.52728196 118.83872642 144.26359791 118.92357134 157 119 C157.00238835 119.57223203 157.00477671 120.14446405 157.00723743 120.73403645 C157.066541 134.69953582 157.14237391 148.66486275 157.23571491 162.6301775 C157.28055657 169.3838882 157.31999752 176.13754753 157.34643555 182.89135742 C157.37198529 189.4142806 157.41296771 195.93700307 157.46318626 202.45978355 C157.47981684 204.94310323 157.49135475 207.42646262 157.49761391 209.90983009 C157.50729623 213.39952064 157.53540597 216.88862827 157.56762695 220.37817383 C157.56619186 221.39525925 157.56475677 222.41234467 157.5632782 223.46025085 C157.72663004 236.04464031 161.14696675 247.31484085 169.828125 256.5546875 C171 258 171 258 171 260 C171.83144531 260.38865234 171.83144531 260.38865234 172.6796875 260.78515625 C175.30457919 262.15946823 177.67266904 263.77520569 180.125 265.4375 C191.74099554 272.75466255 204.84789674 274.02800636 218.28515625 271.34375 C221.02175221 270.43023883 223.45185973 269.35043396 226 268 C226.92039062 267.525625 227.84078125 267.05125 228.7890625 266.5625 C239.68124669 260.32124845 246.88382777 250.79724363 251 239 C251.84178886 235.41800601 252.14617466 232.05914599 252.20532227 228.38354492 C252.22526749 227.28278122 252.24521271 226.18201752 252.26576233 225.04789734 C252.28247482 223.8706459 252.29918732 222.69339447 252.31640625 221.48046875 C252.3475779 219.65990715 252.3475779 219.65990715 252.37937927 217.80256653 C252.44468916 213.93093449 252.50367363 210.05923545 252.5625 206.1875 C252.60570285 203.56053998 252.64931771 200.93358671 252.69335938 198.30664062 C252.80035158 191.87116429 252.90215236 185.43562151 253 179 C256.92981133 180.79078702 258.91104243 182.98936063 261.625 186.375 C262.40101563 187.33148438 263.17703125 188.28796875 263.9765625 189.2734375 C265.62890427 191.49995208 266.77494581 193.54429777 268 196 C269.32520503 196.68268138 270.65812182 197.3507041 272 198 C272.33 198.99 272.66 199.98 273 201 C274.33271433 201.66790324 275.66621713 202.33423317 277 203 C279.06983769 204.80034204 281.0757139 206.61316265 283.0625 208.5 C285.93844517 211.21130519 288.69769724 213.79846483 292 216 C292.38818359 217.84082031 292.38818359 217.84082031 292.3984375 220.078125 C292.40464111 220.9023999 292.41084473 221.7266748 292.41723633 222.57592773 C292.40329834 223.45837158 292.38936035 224.34081543 292.375 225.25 C292.36557373 226.15371338 292.35614746 227.05742676 292.34643555 227.98852539 C292.06796107 240.48437396 288.94800733 251.52894398 284 263 C283.46439453 264.27617188 283.46439453 264.27617188 282.91796875 265.578125 C280.4878586 270.90204123 277.33818972 275.48364941 273.8125 280.125 C273.37204346 280.70636719 272.93158691 281.28773438 272.4777832 281.88671875 C271.37008928 283.29979995 270.19037194 284.65582779 269 286 C268.34 286 267.68 286 267 286 C266.67 286.99 266.34 287.98 266 289 C249.69602924 304.71173251 227.65431103 312.64954064 205.25 313.4375 C180.67305166 312.76569276 158.50225038 303.30839476 141.25048828 285.78979492 C126.28695311 269.82385788 117.77190338 248.0733526 117.88647461 226.22875977 C117.88632858 225.48646622 117.88618256 224.74417267 117.8860321 223.97938538 C117.88672326 221.55002824 117.89447797 219.12074983 117.90234375 216.69140625 C117.90421077 214.99747255 117.90563333 213.30353831 117.90663147 211.60960388 C117.91043432 207.16926562 117.92024538 202.7289605 117.93133545 198.28863525 C117.94159773 193.75037077 117.94613938 189.21210089 117.95117188 184.67382812 C117.9618698 175.78253759 117.9789192 166.89127156 118 158 C117.12320084 158.00666183 116.24640167 158.01332367 115.34303284 158.02018738 C107.0043045 158.08076562 98.66565204 158.12620868 90.32675266 158.15543652 C86.04155001 158.17096887 81.75653199 158.19197406 77.47143555 158.22631836 C73.32167229 158.25936276 69.17208449 158.27694592 65.02219963 158.28463173 C63.45367617 158.29009567 61.88516026 158.30075988 60.31671333 158.31719017 C32.74913863 158.59399607 8.77564496 151.28508333 -11.40625 131.66015625 C-28.98939919 113.0834387 -35.50496265 90.29930097 -35.21875 65.31640625 C-35.02825854 58.60277287 -33.90381633 52.45642061 -32 46 C-31.74476562 45.09765625 -31.48953125 44.1953125 -31.2265625 43.265625 C-25.43730084 25.31360259 -14.05770718 12.15008512 0 0 Z " fill="#7BC0B6" transform="translate(45,178)"/>
<path d="M0 0 C18.97688115 13.85777697 31.51513361 32.84839242 36 56 C36.74921174 61.25535156 37.12276161 66.2893102 37.11352539 71.609375 C37.11367142 72.32255386 37.11381744 73.03573273 37.1139679 73.77052307 C37.11327853 76.09704776 37.10553253 78.42348953 37.09765625 80.75 C37.09578859 82.3752437 37.09436633 84.00048796 37.09336853 85.62573242 C37.08957073 89.88028549 37.07976413 94.13480382 37.06866455 98.38934326 C37.05839127 102.74002615 37.05385829 107.0907147 37.04882812 111.44140625 C37.03813913 119.96095335 37.02109599 128.48047234 37 137 C37.95418823 136.99111755 38.90837646 136.98223511 39.89147949 136.9730835 C48.95157226 136.89145399 58.01158893 136.83177661 67.07196808 136.79275131 C71.72831228 136.77201246 76.384356 136.74395047 81.04052734 136.69824219 C85.54690946 136.65428894 90.05300539 136.63076034 94.55958557 136.62049103 C96.26571651 136.61318727 97.97183453 136.59892942 99.67784119 136.57707977 C123.66022105 136.28257286 145.9106739 143.35077604 163.65527344 159.99047852 C174.79785325 170.99110492 182.01895158 183.21650372 187 198 C187.3403125 198.98742187 187.680625 199.97484375 188.03125 200.9921875 C192.65536069 217.13375909 191.34361965 236.18366594 186 252 C185.34 252.99 184.68 253.98 184 255 C183.5153125 254.34773438 183.030625 253.69546875 182.53125 253.0234375 C173.81258776 241.65564327 164.73658143 236.58345603 151 233 C151.05220703 231.94425781 151.05220703 231.94425781 151.10546875 230.8671875 C151.50744562 216.20460276 148.40992314 203.13522122 138.875 191.8125 C129.9808887 182.43164629 119.57320612 177.02514718 106.59155273 176.61523438 C104.20564765 176.59428278 101.8195834 176.58779592 99.43359375 176.59375 C98.15952164 176.58291382 96.88544952 176.57207764 95.57276917 176.56091309 C90.84357806 176.52107353 86.11457767 176.50692677 81.38525391 176.49468994 C76.73449766 176.48124605 72.08421615 176.44583399 67.43359375 176.40625 C66.22086288 176.40927124 65.00813202 176.41229248 63.75865173 176.41540527 C56.90332832 176.35504065 51.34684885 175.58563166 45 173 C35.22684819 170.31238325 26.34042356 172.88652548 17 176 C15.51876453 176.0806622 14.03417796 176.10761193 12.55078125 176.09765625 C11.70322266 176.09443359 10.85566406 176.09121094 9.98242188 176.08789062 C9.10134766 176.07951172 8.22027344 176.07113281 7.3125 176.0625 C6.41982422 176.05798828 5.52714844 176.05347656 4.60742188 176.04882812 C2.40488013 176.03704983 0.20247401 176.02060164 -2 176 C-2.00054477 175.43145514 -2.00108953 174.86291029 -2.00165081 174.2771368 C-2.01668568 160.37694872 -2.0597127 146.47708286 -2.13209057 132.57707119 C-2.16659221 125.85481148 -2.19207644 119.13275367 -2.19555664 112.41040039 C-2.19985994 105.91328698 -2.22849156 99.4166803 -2.27343178 92.91972542 C-2.28634187 90.4508771 -2.29073771 87.98196795 -2.28615379 85.51309013 C-2.15679018 60.91973178 -2.15679018 60.91973178 -14 40 C-14.763125 39.13375 -15.52625 38.2675 -16.3125 37.375 C-27.19314038 27.75955036 -38.80338712 23.58679967 -53.234375 23.72265625 C-65.43222614 24.6210457 -77.04283696 30.06827354 -85.40625 39.0234375 C-92.51374343 47.83812297 -97.06692664 58.36583024 -97.15821838 69.77729797 C-97.17290161 71.17594337 -97.17290161 71.17594337 -97.18788147 72.60284424 C-97.19363693 73.6134491 -97.1993924 74.62405396 -97.20532227 75.6652832 C-97.21522186 76.7389061 -97.22512146 77.81252899 -97.23532104 78.91868591 C-97.26687502 82.46269536 -97.29166944 86.00671821 -97.31640625 89.55078125 C-97.33698104 92.00986578 -97.35797765 94.46894682 -97.37937927 96.92802429 C-97.43454569 103.3970354 -97.48397896 109.86607813 -97.53222656 116.33514404 C-97.5824812 122.93765067 -97.63814659 129.54011143 -97.69335938 136.14257812 C-97.80087457 149.09501433 -97.90183427 162.04748956 -98 175 C-111.53 175 -125.06 175 -139 175 C-139.33 173.68 -139.66 172.36 -140 171 C-138.48828125 168.51953125 -138.48828125 168.51953125 -136.3125 165.8125 C-127.97933813 154.86159095 -125.61147941 144.2370922 -125.6875 130.625 C-125.69487183 129.04779175 -125.69487183 129.04779175 -125.70239258 127.4387207 C-125.9577447 110.14679884 -129.06559157 91.95510043 -135.66015625 75.890625 C-140.38900846 63.56736371 -134.34856135 47.08413404 -129.3671875 35.55566406 C-119.49637178 13.86124329 -102.86188123 -0.85747477 -81 -10 C-53.8594182 -19.79728129 -23.8688174 -16.2228174 0 0 Z " fill="#0D8EAC" transform="translate(300,25)"/>
<path d="M0 0 C2.6875 1.8125 2.6875 1.8125 4.90234375 4.3046875 C8.23593501 7.30632227 10.5769134 7.84827376 14.9375 8.75 C24.13066914 10.90784264 30.9109389 14.54357127 36.29296875 22.4609375 C49.74199636 45.13968994 56.41835448 76.97008384 51.4296875 102.97265625 C49.18957529 111.54403295 44.63508943 117.44349914 38.578125 123.78125 C36.64042287 125.67162927 36.64042287 125.67162927 35.6875 127.8125 C36.46741569 129.81705581 36.46741569 129.81705581 37.625 132 C39.54184447 136.1465073 40.31016077 139.18702003 39.6875 143.8125 C38.375 146.6875 38.375 146.6875 36.6875 148.8125 C35.6975 149.1425 34.7075 149.4725 33.6875 149.8125 C40.91444184 165.93950206 50.88828879 177.75687557 67.62890625 184.484375 C82.07167327 189.65103396 97.18235972 188.72089401 112.09765625 186.2734375 C127.70033924 184.27004621 142.58819317 185.10929252 155.4921875 194.984375 C156.21664062 195.58765625 156.94109375 196.1909375 157.6875 196.8125 C158.58855469 197.56273437 158.58855469 197.56273437 159.5078125 198.328125 C170.2188259 208.19222106 176.61779187 221.20432515 183.10064697 233.9861145 C190.78714083 249.14019681 199.08222752 263.49380646 209.6875 276.8125 C210.39261719 277.72128906 211.09773438 278.63007813 211.82421875 279.56640625 C226.59400574 298.20762754 244.66121886 314.33191144 268.86328125 318.4609375 C282.00788651 319.66932818 294.18334363 315.83696357 304.4609375 307.5859375 C306.6875 305.8125 306.6875 305.8125 308.6875 305.8125 C308.6875 305.1525 308.6875 304.4925 308.6875 303.8125 C310.33752828 302.45863064 312.0049387 301.12571858 313.6875 299.8125 C314.0175 299.1525 314.3475 298.4925 314.6875 297.8125 C315.3475 297.8125 316.0075 297.8125 316.6875 297.8125 C316.92210937 297.28398437 317.15671875 296.75546875 317.3984375 296.2109375 C319.08516164 293.07260835 321.19959858 290.29503453 323.3125 287.4375 C335.18200371 271.0445443 351.72129409 245.94322858 348.6875 224.8125 C347.48475282 221.56041175 346.2903514 220.20077589 343.1875 218.6875 C333.36711318 214.36131343 322.65148373 214.24573877 312.09487915 213.55236816 C289.74163306 212.06038904 268.86266547 210.43104991 247.72021484 202.52099609 C243.65027349 200.97875545 243.65027349 200.97875545 239.50390625 201.5546875 C238.76011719 201.92851562 238.01632812 202.30234375 237.25 202.6875 C228.67154392 206.73921379 219.66236215 206.91290692 210.6875 203.8125 C204.01350913 200.65219873 198.97489237 196.82339561 194.6875 190.8125 C193.82125 189.6059375 193.82125 189.6059375 192.9375 188.375 C188.4966515 179.27126057 188.34113628 168.74603091 191.58984375 159.2265625 C195.56576401 150.48236777 202.37026856 144.43887654 211.16796875 140.78125 C220.34185653 137.70906433 228.77440892 137.95561197 237.6875 141.8125 C246.22501944 146.62885572 251.97111554 152.31040837 255.12109375 161.65234375 C257.56541309 170.97447197 256.7787022 180.04563815 252.6875 188.8125 C253.368125 188.93753906 254.04875 189.06257812 254.75 189.19140625 C259.33125139 190.1600485 263.80871197 191.50094693 268.3125 192.77734375 C281.51819573 196.09719387 295.14609428 196.58394013 308.67749023 197.41430664 C347.66705799 199.84021304 347.66705799 199.84021304 359.6875 212.8125 C362.40517197 216.49628079 364.26034272 220.2205592 364.6875 224.8125 C364.78224609 225.76962891 364.78224609 225.76962891 364.87890625 226.74609375 C366.28848395 253.70995097 347.88669442 284.24455425 330.6875 303.8125 C329.96949219 304.65039062 329.25148438 305.48828125 328.51171875 306.3515625 C315.84063237 320.83905677 299.65513813 333.38624013 279.6875 334.8125 C278.43646484 334.90724609 278.43646484 334.90724609 277.16015625 335.00390625 C254.58087144 335.94344696 234.49208598 324.54852087 218.125 310 C214.90665576 307.0066782 211.75505025 303.96077526 208.6875 300.8125 C207.82717163 299.98613037 207.82717163 299.98613037 206.94946289 299.14306641 C202.00688944 294.35126678 197.78321428 289.32137261 193.75 283.75 C192.83951904 282.49848145 192.83951904 282.49848145 191.91064453 281.22167969 C183.45531832 269.46380783 176.71746194 257.09292267 170.0690918 244.24267578 C157.70038202 218.65785259 157.70038202 218.65785259 135.5 202.46484375 C127.50405986 200.61022986 119.402523 201.65492615 111.375 202.8125 C86.91457709 206.25564532 64.14008001 203.93473538 43.515625 189.609375 C33.04209252 181.33470569 25.47288692 171.7833272 19.6875 159.8125 C19.6875 158.8225 19.6875 157.8325 19.6875 156.8125 C18.82125 157.06 17.955 157.3075 17.0625 157.5625 C13.6875 157.8125 13.6875 157.8125 10.625 156.5 C6.66895631 152.88064088 4.63947699 148.77017606 2.6875 143.8125 C2.6875 143.1525 2.6875 142.4925 2.6875 141.8125 C1.70910156 141.83570313 0.73070313 141.85890625 -0.27734375 141.8828125 C-18.03856257 142.12731305 -28.74428677 137.87924734 -41.52734375 125.5546875 C-42.44644531 124.64976562 -43.36554688 123.74484375 -44.3125 122.8125 C-44.93253906 122.23757812 -45.55257812 121.66265625 -46.19140625 121.0703125 C-47.3125 119.8125 -47.3125 119.8125 -47.3125 117.8125 C-47.9725 117.8125 -48.6325 117.8125 -49.3125 117.8125 C-50.59008789 116.4140625 -50.59008789 116.4140625 -52.03515625 114.4375 C-52.56955322 113.70724609 -53.1039502 112.97699219 -53.65454102 112.22460938 C-54.22229248 111.42861328 -54.79004395 110.63261719 -55.375 109.8125 C-56.24692993 108.59530273 -56.24692993 108.59530273 -57.13647461 107.35351562 C-67.09170993 93.23573123 -78.15416262 76.84544651 -76.3125 58.8125 C-74.9407638 53.37774082 -73.14340159 48.5960515 -69.5625 44.25 C-66.72247428 40.66124023 -67.10074453 37.65955203 -67.30859375 33.234375 C-67.31591087 28.69775878 -65.77650478 25.34226386 -62.66015625 22.0859375 C-57.62481492 17.59351881 -53.68869829 16.38410834 -46.94921875 16.47265625 C-41.87978556 17.12604986 -38.34102555 19.60633521 -34.9296875 23.31640625 C-31.48320163 28.31742595 -31.46722036 33.95591963 -32.3125 39.8125 C-34.06922626 45.17150201 -37.4401066 48.11713344 -42.3125 50.8125 C-45.13966095 51.75488698 -46.94426123 51.94715647 -49.875 51.9375 C-50.66003906 51.94007812 -51.44507812 51.94265625 -52.25390625 51.9453125 C-54.3125 51.8125 -54.3125 51.8125 -56.3125 50.8125 C-56.7765625 51.988125 -56.7765625 51.988125 -57.25 53.1875 C-58.3125 55.8125 -58.3125 55.8125 -59.3125 57.8125 C-61.58436181 73.34168201 -51.41735474 86.6634692 -42.91845703 98.69824219 C-40.65600442 101.67678271 -38.1730232 104.42936043 -35.63061523 107.17041016 C-34.3125 108.8125 -34.3125 108.8125 -34.3125 110.8125 C-33.6525 110.8125 -32.9925 110.8125 -32.3125 110.8125 C-31.12109375 112.1328125 -31.12109375 112.1328125 -29.75 113.9375 C-24.76321609 119.90469531 -18.58504061 124.30712721 -10.8203125 125.6328125 C1.22347349 126.4957629 13.29399851 124.65811755 22.62109375 116.69921875 C23.64396484 115.76529297 23.64396484 115.76529297 24.6875 114.8125 C25.33847656 114.24144531 25.98945313 113.67039062 26.66015625 113.08203125 C33.69959632 106.55074609 36.27632336 100.26537877 36.71875 90.67578125 C36.55892592 70.91752947 33.71189738 44.59964834 20.6875 28.8125 C16.51681001 25.47594801 12.78471546 24.03583171 7.6875 22.8125 C7.460625 23.555 7.23375 24.2975 7 25.0625 C4.98185209 29.29100038 2.14211738 31.10210547 -2 33.125 C-7.56931277 34.2808951 -12.6995673 34.43147657 -17.6640625 31.35546875 C-22.22191104 27.55173697 -24.85257463 24.5437255 -25.58984375 18.5625 C-25.93989554 12.96167135 -25.1657448 9.08101378 -21.8515625 4.5078125 C-15.9153762 -2.03103231 -8.17517878 -2.93072447 0 0 Z " fill="#7CBFB6" transform="translate(113.3125,67.1875)"/>
<path d="M0 0 C0.33 0.66 0.66 1.32 1 2 C1.99 2.33 2.98 2.66 4 3 C3.67 40.95 3.34 78.9 3 118 C9.6 118 16.2 118 23 118 C23 117.34 23 116.68 23 116 C25.31 116 27.62 116 30 116 C28.67661368 116.68620031 27.34050052 117.34786461 26 118 C25.3296875 118.350625 24.659375 118.70125 23.96875 119.0625 C19.69607996 120.41176422 15.63702651 120.21126972 11.1875 120.125 C9.86202148 120.11146484 9.86202148 120.11146484 8.50976562 120.09765625 C6.33972641 120.07419637 4.16982753 120.03832865 2 120 C1.99576806 119.4240808 1.99153612 118.8481616 1.98717594 118.25479031 C1.88375027 104.22400684 1.77509503 90.19327195 1.66066074 76.16257381 C1.60544595 69.37736114 1.55198368 62.59214322 1.50268555 55.80688477 C1.4551007 49.25812142 1.40258112 42.7094084 1.34705925 36.16070747 C1.32668728 33.6629012 1.30796582 31.1650809 1.29092598 28.66724968 C1.26676764 25.16735648 1.23672883 21.66755924 1.20532227 18.16772461 C1.19668907 16.62052483 1.19668907 16.62052483 1.18788147 15.04206848 C1.13574549 9.92678854 0.87666281 5.04225961 0 0 Z " fill="#28879D" transform="translate(296,81)"/>
<path d="M0 0 C4.17799643 2.08899822 4.92391901 3.05544612 7 7 C4.525 6.01 4.525 6.01 2 5 C1.67 20.84 1.34 36.68 1 53 C0.67 53 0.34 53 0 53 C0 35.51 0 18.02 0 0 Z " fill="#7CB3AB" transform="translate(298,357)"/>
<path d="M0 0 C0.66 0 1.32 0 2 0 C2 0.99 2 1.98 2 3 C3.32 3.33 4.64 3.66 6 4 C5.34 7.96 4.68 11.92 4 16 C2.14316785 12.28633571 1.48888644 9.7841109 0.875 5.75 C0.70742187 4.67234375 0.53984375 3.5946875 0.3671875 2.484375 C0.24601563 1.66453125 0.12484375 0.8446875 0 0 Z " fill="#1E8BA4" transform="translate(169,112)"/>
<path d="M0 0 C0.66 0.99 1.32 1.98 2 3 C0.68 5.31 -0.64 7.62 -2 10 C-1.01 10.33 -0.02 10.66 1 11 C0 14 0 14 -1.9375 15.0625 C-2.618125 15.371875 -3.29875 15.68125 -4 16 C-4.66 16.66 -5.32 17.32 -6 18 C-4.83805848 11.53287812 -2.8751252 5.90377651 0 0 Z " fill="#1689A1" transform="translate(172,58)"/>
<path d="M0 0 C0.66 0.33 1.32 0.66 2 1 C1.01 2.98 0.02 4.96 -1 7 C-1.66 7 -2.32 7 -3 7 C-3 7.99 -3 8.98 -3 10 C-3.66 10 -4.32 10 -5 10 C-5 11.98 -5 13.96 -5 16 C-5.99 16.33 -6.98 16.66 -8 17 C-7.68028731 10.92545895 -4.32686711 4.32686711 0 0 Z " fill="#82B9AF" transform="translate(46,108)"/>
<path d="M0 0 C2.82858266 3.36736031 4.4998253 6.87451958 6 11 C5.67 11.99 5.34 12.98 5 14 C1.98101014 12.49050507 1.40039451 9.98344918 0 7 C-0.33 6.34 -0.66 5.68 -1 5 C-0.72057545 3.32345271 -0.39171753 1.65391846 0 0 Z " fill="#1A88A0" transform="translate(326,55)"/>
<path d="M0 0 C2.62498071 1.19881009 4.1241896 1.88887288 6 4 C6.77089327 7.43328798 6.56602087 10.75284862 6.375 14.25 C6.34792969 15.18585938 6.32085937 16.12171875 6.29296875 17.0859375 C6.22234523 19.3929724 6.12380579 21.69530769 6 24 C5.67 24 5.34 24 5 24 C4.67 17.73 4.34 11.46 4 5 C2.68 5 1.36 5 0 5 C0 3.35 0 1.7 0 0 Z " fill="#84B8AF" transform="translate(331,390)"/>
<path d="M0 0 C6.13053511 -0.32712342 10.62669111 -0.39366878 16 3 C13.3333581 4.33332095 11.83319697 3.67102033 9 3 C8.67 3.99 8.34 4.98 8 6 C7.13375 5.071875 7.13375 5.071875 6.25 4.125 C4.17607822 2.1662961 2.54428669 1.1866211 0 0 Z " fill="#7FB5AD" transform="translate(100,66)"/>
<path d="M0 0 C0.33 0.66 0.66 1.32 1 2 C0.67 2.99 0.34 3.98 0 5 C-0.5775 5.2475 -1.155 5.495 -1.75 5.75 C-4.72482083 7.40267824 -5.95568087 9.60551639 -7.75390625 12.44140625 C-9 14 -9 14 -12 15 C-10.42921185 11.31766057 -8.13566869 8.74453885 -5.4375 5.8125 C-4.63183594 4.93207031 -3.82617188 4.05164062 -2.99609375 3.14453125 C-1 1 -1 1 0 0 Z " fill="#20899D" transform="translate(192,31)"/>
<path d="M0 0 C2.625 -0.1875 2.625 -0.1875 5 0 C4.06409496 1.1055189 3.12620142 2.20935453 2.1875 3.3125 C1.40439453 4.23482422 1.40439453 4.23482422 0.60546875 5.17578125 C-0.87172469 6.85424679 -2.40039131 8.43882034 -4 10 C-3.125 4.125 -3.125 4.125 -2 3 C-1.34 2.01 -0.68 1.02 0 0 Z " fill="#1A889D" transform="translate(214,59)"/>
<path d="M0 0 C3.62592996 0.08060591 7.25014402 0.19346817 10.875 0.3125 C12.42380859 0.34633789 12.42380859 0.34633789 14.00390625 0.38085938 C14.99003906 0.41630859 15.97617188 0.45175781 16.9921875 0.48828125 C17.90339355 0.51446533 18.81459961 0.54064941 19.75341797 0.56762695 C20.49479004 0.71031006 21.23616211 0.85299316 22 1 C22.66 1.99 23.32 2.98 24 4 C23.34 4.66 22.68 5.32 22 6 C21.67 4.68 21.34 3.36 21 2 C19.98679687 2.01160156 18.97359375 2.02320313 17.9296875 2.03515625 C16.57812686 2.04454209 15.2265642 2.05364143 13.875 2.0625 C12.87726563 2.07506836 12.87726563 2.07506836 11.859375 2.08789062 C7.79318646 2.10782292 3.9879908 1.78890161 0 1 C0 0.67 0 0.34 0 0 Z " fill="#85B7AF" transform="translate(95,207)"/>
<path d="M0 0 C3.63559661 3.43361902 6.36113346 6.7973607 9 11 C8.67 11.66 8.34 12.32 8 13 C4.74305277 9.97569186 2.27649087 6.82125253 0 3 C0 2.01 0 1.02 0 0 Z M2 9 C4 10 4 10 4 10 Z " fill="#7EB7AF" transform="translate(279,274)"/>
<path d="M0 0 C1.32 0 2.64 0 4 0 C4.33 1.65 4.66 3.3 5 5 C6.32 4.67 7.64 4.34 9 4 C8.67 5.98 8.34 7.96 8 10 C4.71211176 6.88983545 2.16264012 3.98381075 0 0 Z " fill="#258A9B" transform="translate(477,270)"/>
<path d="M0 0 C1.32 0.66 2.64 1.32 4 2 C4 2.99 4 3.98 4 5 C3.01 5 2.02 5 1 5 C-1.33564933 5.31669821 -3.6693782 5.64820803 -6 6 C-4 4 -2 2 0 0 Z " fill="#7AB8AE" transform="translate(45,178)"/>
<path d="M0 0 C0.66 0.33 1.32 0.66 2 1 C-0.46044197 4.33917125 -2.30024567 6.2139117 -6 8 C-6.33 8.99 -6.66 9.98 -7 11 C-7.66 11 -8.32 11 -9 11 C-7.59928507 5.70841026 -4.14512755 3.22521956 0 0 Z " fill="#7FB7AE" transform="translate(56,85)"/>
<path d="M0 0 C1.07816551 4.31266203 1.07800276 4.50020587 -1 8 C-1.33 8.680625 -1.66 9.36125 -2 10.0625 C-3 12 -3 12 -5 15 C-5.66 14.67 -6.32 14.34 -7 14 C-4.69 9.38 -2.38 4.76 0 0 Z " fill="#80B5AC" transform="translate(456,321)"/>
<path d="M0 0 C6.0018137 -0.21824777 11.19233704 0.4943096 17 2 C17 2.33 17 2.66 17 3 C12.48104665 3.86902949 9.98632355 4.31463948 6 2 C4.00889599 1.61709538 2.00899487 1.27395385 0 1 C0 0.67 0 0.34 0 0 Z " fill="#81BAB0" transform="translate(432,266)"/>
<path d="M0 0 C0.33 0 0.66 0 1 0 C1.33 2.97 1.66 5.94 2 9 C0.68 9 -0.64 9 -2 9 C-2.66 8.34 -3.32 7.68 -4 7 C-2.68 4.69 -1.36 2.38 0 0 Z " fill="#178AA5" transform="translate(170,181)"/>
<path d="M0 0 C3.55780196 0.60990891 6.6828589 1.5783681 10 3 C7.03312999 4.64826111 4.34373475 5.44271087 1 6 C1.33 4.68 1.66 3.36 2 2 C1.34 2 0.68 2 0 2 C0 1.34 0 0.68 0 0 Z " fill="#1A89A3" transform="translate(432,167)"/>
<path d="M0 0 C4.63720719 3.27530896 8.68542782 6.30435607 12 11 C9.33333333 9.66666667 6.66666667 8.33333333 4 7 C4 6.34 4 5.68 4 5 C2.68 4.34 1.36 3.68 0 3 C0 2.01 0 1.02 0 0 Z " fill="#1D8599" transform="translate(303,28)"/>
<path d="M0 0 C-0.33 0.99 -0.66 1.98 -1 3 C-3.31 2.67 -5.62 2.34 -8 2 C-8 2.66 -8 3.32 -8 4 C-9.65 4 -11.3 4 -13 4 C-8.93522219 0.68795882 -5.26054188 -1.94834884 0 0 Z " fill="#1C89A1" transform="translate(225,15)"/>
<path d="M0 0 C0.66 0 1.32 0 2 0 C2.45572917 1.98567708 2.91145833 3.97135417 3.3671875 5.95703125 C3.98007723 8.27742974 3.98007723 8.27742974 6 11 C5.125 14.1875 5.125 14.1875 4 17 C3.67 17 3.34 17 3 17 C2.01 11.39 1.02 5.78 0 0 Z " fill="#7FB9AF" transform="translate(146,124)"/>
<path d="M0 0 C1.32 0.66 2.64 1.32 4 2 C1.375 6.875 1.375 6.875 -2 8 C-2.33 8.66 -2.66 9.32 -3 10 C-3.33 9.01 -3.66 8.02 -4 7 C-3.01 6.67 -2.02 6.34 -1 6 C-1 5.01 -1 4.02 -1 3 C-0.67 2.01 -0.34 1.02 0 0 Z " fill="#7FB7AF" transform="translate(149,209)"/>
<path d="M0 0 C2.04119788 1.61594832 4.04072937 3.2856382 6 5 C6 5.66 6 6.32 6 7 C4.35 7.66 2.7 8.32 1 9 C1.33 7.02 1.66 5.04 2 3 C1.01 2.67 0.02 2.34 -1 2 C-0.67 1.34 -0.34 0.68 0 0 Z " fill="#7DB8AF" transform="translate(66,201)"/>
<path d="M0 0 C2.5 2.3125 2.5 2.3125 5 5 C5 5.99 5 6.98 5 8 C2.69 7.01 0.38 6.02 -2 5 C-2 4.01 -2 3.02 -2 2 C-1.34 2 -0.68 2 0 2 C0 1.34 0 0.68 0 0 Z " fill="#1D88A3" transform="translate(469,192)"/>
<path d="M0 0 C2.64 1.65 5.28 3.3 8 5 C7.01 5.66 6.02 6.32 5 7 C4.01 6.67 3.02 6.34 2 6 C2 5.34 2 4.68 2 4 C1.34 4 0.68 4 0 4 C0 2.68 0 1.36 0 0 Z " fill="#178A9F" transform="translate(451,176)"/>
<path d="M0 0 C2.12046792 3.53411321 2.53199289 6.94393835 3 11 C2.34 11 1.68 11 1 11 C-0.75 8.875 -0.75 8.875 -2 6 C-1.1875 2.6875 -1.1875 2.6875 0 0 Z " fill="#1C8AA7" transform="translate(332,69)"/>
<path d="M0 0 C4.51478398 0.53115106 7.34666857 2.36620292 11 5 C10.01 5.495 10.01 5.495 9 6 C8.01 5.34 7.02 4.68 6 4 C2.85778033 4.31506627 2.85778033 4.31506627 0 5 C0 3.33333333 0 1.66666667 0 0 Z " fill="#81B8AF" transform="translate(256,256)"/>
<path d="M0 0 C0.12375 0.556875 0.2475 1.11375 0.375 1.6875 C1.05976855 4.22114364 1.99133763 6.57921032 3 9 C1.85073734 8.04578192 0.70569459 7.08647955 -0.4375 6.125 C-1.07558594 5.59132812 -1.71367187 5.05765625 -2.37109375 4.5078125 C-4 3 -4 3 -5 1 C-3.35 0.67 -1.7 0.34 0 0 Z " fill="#1C889E" transform="translate(439,210)"/>
<path d="M0 0 C0.66 0 1.32 0 2 0 C2 0.66 2 1.32 2 2 C2.99 2 3.98 2 5 2 C5 3.98 5 5.96 5 8 C5.66 8 6.32 8 7 8 C7 8.99 7 9.98 7 11 C6.34 11 5.68 11 5 11 C3.35 7.37 1.7 3.74 0 0 Z " fill="#1D889E" transform="translate(290,69)"/>
<path d="M0 0 C2.31 0 4.62 0 7 0 C5.74874616 3.75376152 4.4347596 4.24073289 1 6 C0.34 6 -0.32 6 -1 6 C-1 5.34 -1 4.68 -1 4 C-0.34 3.67 0.32 3.34 1 3 C0.67 2.01 0.34 1.02 0 0 Z " fill="#84B6AF" transform="translate(289,476)"/>
<path d="M0 0 C1.31223496 3.93670488 0.24296256 6.12488144 -1 10 C-1.66 9.34 -2.32 8.68 -3 8 C-2.625 5.875 -2.625 5.875 -2 4 C-2.99 3.67 -3.98 3.34 -5 3 C-4.34 3 -3.68 3 -3 3 C-2.67 2.34 -2.34 1.68 -2 1 C-1.34 1.33 -0.68 1.66 0 2 C0 1.34 0 0.68 0 0 Z " fill="#80B7AF" transform="translate(335,418)"/>
<path d="M0 0 C1.43088528 2.86177057 0.59991697 4.93375773 0 8 C-1.65 8 -3.3 8 -5 8 C-3.8141763 4.62496331 -2.72426311 2.35277269 0 0 Z " fill="#80B5AD" transform="translate(31,191)"/>
<path d="M0 0 C0.66 0.99 1.32 1.98 2 3 C0.68 5.64 -0.64 8.28 -2 11 C-2.66 11 -3.32 11 -4 11 C-3.52269162 9.5410574 -3.04308958 8.08286504 -2.5625 6.625 C-2.29566406 5.81289063 -2.02882812 5.00078125 -1.75390625 4.1640625 C-1 2 -1 2 0 0 Z " fill="#24869D" transform="translate(172,58)"/>
<path d="M0 0 C1.60080151 4.00200378 0.29279692 7.04556236 -1 11 C-1.33 11 -1.66 11 -2 11 C-2.625 7.625 -2.625 7.625 -3 4 C-2.34 3.34 -1.68 2.68 -1 2 C-0.67 1.34 -0.34 0.68 0 0 Z " fill="#80B8AE" transform="translate(476,304)"/>
<path d="M0 0 C2.97 0 5.94 0 9 0 C9 1.32 9 2.64 9 4 C6.03 3.01 3.06 2.02 0 1 C0 0.67 0 0.34 0 0 Z " fill="#218AA5" transform="translate(461,260)"/>
<path d="M0 0 C2.97 0 5.94 0 9 0 C9.33 1.32 9.66 2.64 10 4 C6.7 3.01 3.4 2.02 0 1 C0 0.67 0 0.34 0 0 Z " fill="#2087A6" transform="translate(262,49)"/>
<path d="M0 0 C2.3125 0.1875 2.3125 0.1875 5 1 C6.8125 3.5625 6.8125 3.5625 8 6 C4.63408134 4.55746343 2.48952921 2.66735273 0 0 Z " fill="#83B9B1" transform="translate(336,380)"/>
<path d="M0 0 C2.32947183 2.11770166 3.88750845 4.03335588 5 7 C4.67 7.99 4.34 8.98 4 10 C0 3.375 0 3.375 0 0 Z " fill="#80B8AF" transform="translate(472,280)"/>
</svg>
