<?xml version="1.0" encoding="UTF-8"?>
<svg version="1.1" xmlns="http://www.w3.org/2000/svg" width="512" height="512">
<path d="M0 0 C0.84744978 -0.00453111 1.69489956 -0.00906223 2.56802964 -0.01373065 C5.4005725 -0.02636539 8.23292285 -0.02475486 11.06549072 -0.02310181 C13.09938809 -0.02908768 15.13328318 -0.03589336 17.16717529 -0.04345703 C22.68798868 -0.06111938 28.20874006 -0.06581255 33.72957897 -0.0670886 C37.18073101 -0.06851076 40.63186731 -0.07278161 44.08301544 -0.07808304 C56.12861633 -0.09658491 68.17417297 -0.10475355 80.2197876 -0.10317993 C91.43852954 -0.10197887 102.65707899 -0.12307406 113.87577224 -0.15466726 C123.51504473 -0.18084283 133.15425442 -0.19154667 142.79356217 -0.19026911 C148.54731657 -0.18975981 154.30089992 -0.19542556 160.05461884 -0.21662521 C165.46867418 -0.23602873 170.88239571 -0.23611742 176.29646301 -0.22159195 C178.27894327 -0.21950531 180.26144453 -0.22419604 182.24388885 -0.23631287 C194.56083384 -0.30669408 205.38727977 -0.33706033 214.91802979 8.56430054 C220.59699869 14.88070472 223.6892379 21.83780052 223.71670532 30.38845825 C223.72950027 32.19661011 223.72950027 32.19661011 223.74255371 34.04129028 C223.74164734 35.35051453 223.74074097 36.65973877 223.73980713 38.00863647 C223.74579659 39.4120011 223.7526031 40.81536244 223.76016235 42.21871948 C223.77778937 46.02058499 223.7825164 49.82236039 223.78379393 53.62426281 C223.78521822 56.00335558 223.78949312 58.38242564 223.79478836 60.76151276 C223.81327934 69.07241767 223.82146034 77.38325854 223.81988525 85.69418335 C223.81868484 93.42294096 223.83976971 101.15141886 223.87137258 108.88010573 C223.89758854 115.53002278 223.90825029 122.17984878 223.90697443 128.82981706 C223.90646626 132.79507938 223.91206849 136.76009312 223.93333054 140.72530365 C223.95280242 144.45845801 223.95277706 148.19112899 223.93829727 151.92430115 C223.93523437 153.93337364 223.9518237 155.94244665 223.96917725 157.95144653 C223.90042588 167.92295263 222.11503794 176.28123498 215.15240479 183.73617554 C209.31863998 188.98121178 202.71973313 192.53903927 194.74064636 192.24308777 C192.86284802 192.12969274 190.98569435 192.00529181 189.10919189 191.87216187 C186.9700158 191.74520581 184.83070484 191.62050753 182.69128418 191.4977417 C181.55859352 191.43078472 180.42590286 191.36382774 179.25888824 191.29484177 C120.22190464 185.03561924 120.22190464 185.03561924 67.36915779 204.75301933 C57.53874689 213.67699574 49.4057756 224.82992533 42.87828064 236.32527161 C41.24439045 238.54589047 40.01112391 239.30761073 37.44927979 240.26742554 C31.9330422 240.9281448 27.02585928 240.99940887 21.94927979 238.64242554 C18.02917065 234.91832186 15.26626956 231.62392906 14.99517822 226.09799194 C14.99580465 224.52151543 15.01799708 222.9449403 15.05865479 221.36898804 C15.06431458 220.53402802 15.06997437 219.69906799 15.07580566 218.83880615 C15.09807755 216.18941288 15.14825455 213.54140538 15.19927979 210.89242554 C15.21935676 209.08905975 15.23760543 207.28567261 15.25396729 205.48226929 C15.29791193 201.07679285 15.36687378 196.6723436 15.44927979 192.26742554 C14.7746167 192.2883728 14.09995361 192.30932007 13.40484619 192.3309021 C10.29481412 192.4149714 7.18502219 192.46636998 4.07427979 192.51742554 C3.01338135 192.55094116 1.95248291 192.58445679 0.85943604 192.61898804 C-8.76124236 192.73703317 -16.85843087 190.65869106 -24.01947021 183.97055054 C-29.69843912 177.65414635 -32.79067833 170.69705055 -32.81814575 162.14639282 C-32.82667572 160.94095825 -32.83520569 159.73552368 -32.84399414 158.49356079 C-32.84308777 157.18433655 -32.8421814 155.8751123 -32.84124756 154.5262146 C-32.84723702 153.12284998 -32.85404353 151.71948864 -32.86160278 150.31613159 C-32.8792298 146.51426609 -32.88395683 142.71249069 -32.88523436 138.91058826 C-32.88665865 136.5314955 -32.89093355 134.15242543 -32.89622879 131.77333832 C-32.91471977 123.4624334 -32.92290077 115.15159253 -32.92132568 106.84066772 C-32.92012527 99.11191012 -32.94121014 91.38343221 -32.97281301 83.65474534 C-32.99902897 77.0048283 -33.00969072 70.35500229 -33.00841486 63.70503402 C-33.00790669 59.73977169 -33.01350892 55.77475796 -33.03477097 51.80954742 C-33.05424285 48.07639307 -33.05421749 44.34372209 -33.0397377 40.61054993 C-33.0366748 38.60147743 -33.05326413 36.59240442 -33.07061768 34.58340454 C-33.00186631 24.61189844 -31.21647837 16.25361609 -24.25384521 8.79867554 C-17.06053083 2.33129196 -9.61668071 -0.03794153 0 0 Z M84.44927979 53.26742554 C79.50963407 59.54211063 79.29655464 64.8136227 79.38677979 72.57992554 C79.3912915 73.32049194 79.39580322 74.06105835 79.40045166 74.82406616 C79.41215804 76.63855452 79.43009081 78.45300088 79.44927979 80.26742554 C78.39869385 80.23262085 77.34810791 80.19781616 76.26568604 80.16195679 C63.73116548 79.48145941 63.73116548 79.48145941 52.83599854 84.73226929 C48.74695793 89.4433048 48.09349203 92.67945888 48.17193604 98.72836304 C48.58304422 102.49202956 49.93214339 104.48532741 52.44927979 107.26742554 C58.72396488 112.20707125 63.99547694 112.42015068 71.76177979 112.32992554 C72.50234619 112.32541382 73.2429126 112.3209021 74.00592041 112.31625366 C75.82040877 112.30454729 77.63485513 112.28661452 79.44927979 112.26742554 C79.4144751 113.31801147 79.37967041 114.36859741 79.34381104 115.45101929 C78.66331365 127.98553984 78.66331365 127.98553984 83.91412354 138.88070679 C88.62515904 142.96974739 91.86131313 143.62321329 97.91021729 143.54476929 C101.67388381 143.1336611 103.66718166 141.78456194 106.44927979 139.26742554 C111.3889255 132.99274044 111.60200493 127.72122838 111.51177979 119.95492554 C111.50726807 119.21435913 111.50275635 118.47379272 111.49810791 117.71078491 C111.48640153 115.89629655 111.46846877 114.08185019 111.44927979 112.26742554 C112.49986572 112.30223022 113.55045166 112.33703491 114.63287354 112.37289429 C127.16739409 113.05339167 127.16739409 113.05339167 138.06256104 107.80258179 C142.15160164 103.09154628 142.80506754 99.8553922 142.72662354 93.80648804 C142.31551535 90.04282151 140.96641618 88.04952366 138.44927979 85.26742554 C132.17459469 80.32777982 126.90308263 80.11470039 119.13677979 80.20492554 C118.39621338 80.20943726 117.65564697 80.21394897 116.89263916 80.21859741 C115.0781508 80.23030379 113.26370444 80.24823656 111.44927979 80.26742554 C111.48408447 79.2168396 111.51888916 78.16625366 111.55474854 77.08383179 C112.23524592 64.54931123 112.23524592 64.54931123 106.98443604 53.65414429 C102.27340053 49.56510369 99.03724644 48.91163779 92.98834229 48.99008179 C89.22467576 49.40118998 87.23137791 50.75028914 84.44927979 53.26742554 Z " fill="#62A47C" transform="translate(208.55072021484375,159.73257446289063)"/>
<path d="M0 0 C1.91301877 -0.00570941 3.82603414 -0.01267587 5.73904419 -0.02079773 C10.91269594 -0.03868182 16.08617764 -0.03756961 21.25985098 -0.03185534 C25.58867577 -0.02875641 29.91746824 -0.03486383 34.24628842 -0.04089409 C44.46369901 -0.05492232 54.68102596 -0.05339238 64.8984375 -0.04199219 C75.41741707 -0.03051442 85.93614158 -0.04458489 96.45508754 -0.07138866 C105.50680005 -0.09358486 114.55843271 -0.10017415 123.61017048 -0.09431225 C129.0073356 -0.09095065 134.40433727 -0.09330464 139.80147934 -0.11056328 C144.8790988 -0.12609271 149.95634207 -0.1220105 155.03394699 -0.10325813 C156.88980541 -0.09958873 158.74569208 -0.10263222 160.60152435 -0.11314392 C177.59783486 -0.20201082 190.00199004 2.83063752 202.81298828 14.71655273 C212.25772013 24.69589205 215.53692254 36.2096472 215.49658203 49.66967773 C215.50182388 50.70670837 215.50706573 51.74373901 215.51246643 52.81219482 C215.5188468 54.9870108 215.51760181 57.16186147 215.5090332 59.33666992 C215.50047494 62.65923052 215.52941899 65.98009679 215.56103516 69.30249023 C215.56264628 71.42488556 215.56207135 73.54728391 215.55908203 75.66967773 C215.57031601 76.65728088 215.58154999 77.64488403 215.59312439 78.66241455 C215.5348296 84.43081431 214.96611781 87.85391391 211.06298828 92.40405273 C207.24368656 96.03238937 204.18019822 96.71405732 199.06298828 96.90405273 C193.94577834 96.71405732 190.88229 96.03238937 187.06298828 92.40405273 C183.02110486 87.4351787 182.49403351 83.95919912 182.55908203 77.82202148 C182.54495018 76.60159904 182.54495018 76.60159904 182.53053284 75.35652161 C182.50199593 72.76794025 182.49879899 70.18027817 182.50048828 67.59155273 C182.49686121 65.01367312 182.48709826 62.43646144 182.45973206 59.85871887 C182.44316231 58.26040422 182.43989235 56.66187122 182.45274353 55.06352234 C182.39169388 48.4937854 181.38342254 41.91785652 176.81298828 36.96655273 C171.0458213 33.68975332 165.10921209 33.06379083 158.62548828 32.77905273 C157.89394531 32.74038086 157.16240234 32.70170898 156.40869141 32.66186523 C154.62715296 32.5687129 152.84510706 32.48534987 151.06298828 32.40405273 C151.10939453 32.98670898 151.15580078 33.56936523 151.20361328 34.16967773 C151.7704081 47.0440173 146.51322997 56.75199715 138.40673828 66.36889648 C130.80877766 74.55820781 120.78055955 79.75268527 109.62327576 80.69436646 C105.62364695 80.81576424 101.63428008 80.84856786 97.63330078 80.83764648 C96.15176151 80.84222003 94.67022436 80.84752904 93.18869019 80.85353088 C90.09738498 80.86241642 87.00633873 80.86009196 83.91503906 80.85009766 C79.98593319 80.83862211 76.05772803 80.85882026 72.12874031 80.88801479 C69.07260618 80.90650916 66.01668259 80.90605815 62.96050644 80.90037727 C61.51346449 80.90022562 60.0664068 80.90613814 58.6194191 80.91866875 C42.69881849 81.03713717 31.04445676 76.97589111 19.31298828 66.09155273 C11.63644577 57.98048895 6.92287366 47.99359145 6.87548828 36.77905273 C6.92262232 35.32014193 6.97927281 33.86132213 7.06298828 32.40405273 C-7.68456559 32.33885853 -7.68456559 32.33885853 -20.37451172 38.65405273 C-24.69957939 46.26617184 -24.22284241 54.01446786 -24.19770813 62.54855347 C-24.20073048 64.00011235 -24.20462038 65.45166963 -24.2093007 66.90322411 C-24.21957869 70.88341466 -24.21739938 74.86351511 -24.2131201 78.84371305 C-24.21065252 83.13965402 -24.21966745 87.43557332 -24.22715759 91.73150635 C-24.23990574 100.14442544 -24.24169814 108.55731262 -24.23935733 116.97023974 C-24.23757413 123.80876782 -24.23932385 130.64728622 -24.24358177 137.48581314 C-24.24417696 138.45919336 -24.24477215 139.43257358 -24.24538537 140.43545017 C-24.24659713 142.41289186 -24.24781126 144.39033354 -24.24902775 146.36777522 C-24.25990375 164.91159214 -24.25774052 183.45539088 -24.25164291 201.99920882 C-24.24647377 218.96087206 -24.257729 235.92247787 -24.27674112 252.88412975 C-24.29611656 270.30354141 -24.30437604 287.7229259 -24.30061787 305.14234841 C-24.29870537 314.9207429 -24.30119817 324.69908851 -24.31533241 334.47747421 C-24.32724342 342.80197518 -24.32865424 351.12639718 -24.31654225 359.45089923 C-24.31065158 363.69707291 -24.3095593 367.94310213 -24.32154465 372.1892662 C-24.33239661 376.07913936 -24.32930835 379.96874731 -24.31528296 383.85860802 C-24.31263414 385.26299095 -24.31500844 386.66739461 -24.32301883 388.07175718 C-24.54261532 400.90519345 -24.54261532 400.90519345 -18.68701172 411.84155273 C-13.14919721 414.98803825 -7.76407286 415.65465931 -1.47415161 415.66474915 C-0.75581551 415.66857469 -0.03747942 415.67240024 0.70262444 415.67634171 C3.09219023 415.68660056 5.48151252 415.68269322 7.87109375 415.67871094 C9.59149394 415.68306137 11.3118922 415.68824563 13.0322876 415.69419861 C17.69350766 415.70756455 22.35464653 415.70816993 27.01588202 415.70563531 C30.91238623 415.70456391 34.80887413 415.70945331 38.70537484 415.71424073 C47.90092642 415.72532772 57.09643716 415.72577794 66.29199219 415.71972656 C75.76631012 415.71368743 85.24047951 415.72599813 94.71477211 415.74729663 C102.86021903 415.76493197 111.00561876 415.77091092 119.15108407 415.76765889 C124.0110612 415.76584889 128.87093239 415.76845389 133.73089218 415.78237343 C138.3028125 415.79497852 142.87450186 415.79298234 147.44641876 415.77996254 C149.11970473 415.777603 150.7930071 415.78030903 152.46627426 415.78858566 C166.45295789 416.26347288 166.45295789 416.26347288 178.50048828 410.15405273 C181.90390799 404.16403404 182.34503765 398.32393074 182.33642578 391.61889648 C182.3567034 389.93724907 182.37755396 388.25560848 182.39892578 386.57397461 C182.42154589 383.95176365 182.43801437 381.32982373 182.44384766 378.70751953 C182.4533916 376.15666147 182.48717063 373.60698765 182.52392578 371.05639648 C182.51888031 370.27811996 182.51383484 369.49984344 182.50863647 368.69798279 C182.60235803 363.4849082 183.67253474 360.56938909 187.06298828 356.40405273 C190.88229 352.7757161 193.94577834 352.09404815 199.06298828 351.90405273 C204.18019822 352.09404815 207.24368656 352.7757161 211.06298828 356.40405273 C215.67042902 361.79035018 215.65004796 366.30410664 215.59423828 373.06811523 C215.59806519 374.09657562 215.60189209 375.12503601 215.60583496 376.18466187 C215.60855138 378.3582253 215.60120922 380.53182157 215.58447266 382.70532227 C215.56319167 385.99758807 215.58421622 389.2876387 215.60986328 392.57983398 C215.63465962 410.38639449 213.23358679 422.69939231 200.75048828 436.15405273 C188.20317212 448.02919124 174.46309956 448.85219385 158.12597656 448.80810547 C156.21295779 448.81381488 154.29994242 448.82078134 152.38693237 448.8289032 C147.21328062 448.84678729 142.03979892 448.84567508 136.86612558 448.83996081 C132.53730079 448.83686187 128.20850833 448.8429693 123.87968814 448.84899956 C113.66227755 448.86302779 103.4449506 448.86149785 93.22753906 448.85009766 C82.70855949 448.83861989 72.18983499 448.85269036 61.67088902 448.87949413 C52.61917652 448.90169033 43.56754385 448.90827962 34.51580608 448.90241772 C29.11864096 448.89905612 23.72163929 448.90141011 18.32449722 448.91866875 C13.24687776 448.93419818 8.1696345 448.93011597 3.09202957 448.9113636 C1.23617115 448.9076942 -0.61971551 448.91073769 -2.47554779 448.92124939 C-19.4718583 449.01011629 -31.87601348 445.97746795 -44.68701172 434.09155273 C-55.44424321 422.72542135 -57.39198021 410.28177136 -57.32469177 395.15969849 C-57.32887008 393.62519056 -57.33435031 392.09068572 -57.34101158 390.55618656 C-57.35541982 386.3604998 -57.351236 382.16501025 -57.34384477 377.96931291 C-57.33910392 373.43613754 -57.35163106 368.90300428 -57.36186218 364.36984253 C-57.37903762 355.4971052 -57.37989279 346.62443873 -57.37464928 337.75168909 C-57.37060396 330.5380641 -57.37205543 323.32446002 -57.37739754 316.11083603 C-57.37814596 315.08322122 -57.37889438 314.05560641 -57.37966548 312.99685176 C-57.381197 310.90909187 -57.38273535 308.82133199 -57.38428045 306.73357211 C-57.39800098 287.16527694 -57.39257097 267.59702177 -57.38109524 248.02872752 C-57.37116361 230.13808502 -57.38410313 212.24754596 -57.40802943 194.35691942 C-57.43242899 175.9734924 -57.44202617 157.59011353 -57.4353767 139.20667064 C-57.43188636 128.89109786 -57.43410438 118.57560461 -57.45162773 108.2600441 C-57.46636041 99.47857499 -57.4669712 90.69724143 -57.44955682 81.91577496 C-57.44105321 77.43829478 -57.43888162 72.96105663 -57.45420837 68.48358917 C-57.46808454 64.37896406 -57.46325499 60.27478765 -57.44396914 56.17018829 C-57.44021777 54.69114615 -57.44310608 53.2120678 -57.45358079 51.73305799 C-57.55811902 35.83260664 -53.46136746 24.33434301 -42.62451172 12.65405273 C-30.07719556 0.77891423 -16.337123 -0.04408839 0 0 Z " fill="#62A47C" transform="translate(136.93701171875,31.595947265625)"/>
</svg>
